<svg width="140" height="140" viewBox="0 0 140 140" fill="none" xmlns="http://www.w3.org/2000/svg">
<path d="M59.6818 117.864C53.1364 117.864 47.4848 116.697 42.7273 114.364C38 112.03 34.3636 108.894 31.8182 104.955C29.2727 100.985 28 96.5758 28 91.7273C28 88.1515 28.697 85 30.0909 82.2727C31.5152 79.5152 33.4697 76.9849 35.9545 74.6818C38.4697 72.3485 41.3939 70.0606 44.7273 67.8182L64.2727 55.3182C66.4849 53.9242 68.0455 52.4545 68.9545 50.9091C69.8939 49.3636 70.3636 47.8182 70.3636 46.2727C70.3636 44.6061 69.7121 43.0909 68.4091 41.7273C67.1364 40.3636 65.2424 39.697 62.7273 39.7273C61.1212 39.7273 59.7273 40.0606 58.5455 40.7273C57.3636 41.3939 56.4394 42.2879 55.7727 43.4091C55.1364 44.5303 54.8182 45.803 54.8182 47.2273C54.8182 49.0758 55.3485 50.9697 56.4091 52.9091C57.4697 54.8485 58.8939 56.9091 60.6818 59.0909C62.5 61.2727 64.5152 63.6818 66.7273 66.3182L111.318 116.455H88.6818L51.3636 75.9546C49.2424 73.5909 47.0152 70.9394 44.6818 68C42.3485 65.0606 40.3788 61.8485 38.7727 58.3636C37.1667 54.8485 36.3636 51.0303 36.3636 46.9091C36.3636 42.2727 37.4545 38.0758 39.6364 34.3182C41.8182 30.5606 44.8788 27.5758 48.8182 25.3636C52.7879 23.1212 57.4091 22 62.6818 22C67.7727 22 72.1667 23.0455 75.8636 25.1364C79.5606 27.2273 82.4091 30 84.4091 33.4546C86.4091 36.9091 87.4091 40.697 87.4091 44.8182C87.4091 49.1818 86.3333 53.197 84.1818 56.8636C82.0303 60.5 64.6212 56.2727 60.6818 59.0909L55.9091 80.2273C53.8788 81.6818 52.2879 83.2424 51.1364 84.9091C49.9848 86.5455 49.4091 88.3333 49.4091 90.2727C49.4091 92.2727 42.7273 100.273 42.7273 100.273C42.7273 100.273 53.1515 98.1515 54.9091 99C56.6667 99.8485 58.7273 100.273 61.0909 100.273C64.2424 100.273 67.3939 99.5303 70.5455 98.0455C73.697 96.5303 76.5758 94.4091 79.1818 91.6818C81.7879 88.9242 83.8788 85.6667 85.4545 81.9091C87.0303 78.1212 105.727 73.9697 105.727 69.4546C105.727 75.0303 105.136 80.2121 103.955 85C102.773 89.7576 101 94.0303 98.6364 97.8182C96.303 101.576 93.4091 104.697 89.9545 107.182C88.8636 107.788 87.803 108.364 86.7727 108.909C85.7424 109.455 84.6818 110.03 83.5909 110.636C80.0152 113.212 76.1364 115.061 71.9545 116.182C67.803 117.303 63.7121 117.864 59.6818 117.864Z" fill="white"/>
</svg>
