<svg width="196" height="48" viewBox="0 0 196 48" fill="none" xmlns="http://www.w3.org/2000/svg">
<g clip-path="url(#clip0_6_29)">
<path d="M15.8409 47.9318C12.5682 47.9318 9.74242 47.3485 7.36364 46.1818C5 45.0152 3.18182 43.447 1.90909 41.4773C0.636364 39.4924 0 37.2879 0 34.8636C0 33.0758 0.348485 31.5 1.04545 30.1364C1.75758 28.7576 2.73485 27.4924 3.97727 26.3409C5.23485 25.1742 6.69697 24.0303 8.36364 22.9091L18.1364 16.6591C19.2424 15.9621 20.0227 15.2273 20.4773 14.4545C20.947 13.6818 21.1818 12.9091 21.1818 12.1364C21.1818 11.303 20.8561 10.5455 20.2045 9.86364C19.5682 9.18182 18.6212 8.84849 17.3636 8.86364C16.5606 8.86364 15.8636 9.03031 15.2727 9.36364C14.6818 9.69697 14.2197 10.1439 13.8864 10.7045C13.5682 11.2652 13.4091 11.9015 13.4091 12.6136C13.4091 13.5379 13.6742 14.4849 14.2045 15.4545C14.7348 16.4242 15.447 17.4545 16.3409 18.5455C17.25 19.6364 18.2576 20.8409 19.3636 22.1591L41.6591 47.2273H30.3409L11.6818 26.9773C10.6212 25.7955 9.50758 24.4697 8.34091 23C7.17424 21.5303 6.18939 19.9242 5.38636 18.1818C4.58333 16.4242 4.18182 14.5152 4.18182 12.4545C4.18182 10.1364 4.72727 8.03788 5.81818 6.15909C6.90909 4.28031 8.43939 2.78788 10.4091 1.68182C12.3939 0.560607 14.7045 0 17.3409 0C19.8864 0 22.0833 0.522728 23.9318 1.56818C25.7803 2.61364 27.2045 4 28.2045 5.72728C29.2045 7.45455 29.7045 9.34849 29.7045 11.4091C29.7045 13.5909 29.1667 15.5985 28.0909 17.4318C27.0152 19.25 18.3106 17.1364 16.3409 18.5455L13.9545 29.1136C12.9394 29.8409 12.1439 30.6212 11.5682 31.4545C10.9924 32.2727 10.7045 33.1667 10.7045 34.1364C10.7045 35.1364 7.36364 39.1364 7.36364 39.1364C7.36364 39.1364 12.5758 38.0758 13.4545 38.5C14.3333 38.9242 15.3636 39.1364 16.5455 39.1364C18.1212 39.1364 19.697 38.7652 21.2727 38.0227C22.8485 37.2652 24.2879 36.2045 25.5909 34.8409C26.8939 33.4621 27.9394 31.8333 28.7273 29.9545C29.5152 28.0606 38.8636 25.9849 38.8636 23.7273C38.8636 26.5152 38.5682 29.1061 37.9773 31.5C37.3864 33.8788 36.5 36.0152 35.3182 37.9091C34.1515 39.7879 32.7045 41.3485 30.9773 42.5909C30.4318 42.8939 29.9015 43.1818 29.3864 43.4545C28.8712 43.7273 28.3409 44.0152 27.7955 44.3182C26.0076 45.6061 24.0682 46.5303 21.9773 47.0909C19.9015 47.6515 17.8561 47.9318 15.8409 47.9318Z" fill="white"/>
<path d="M62.1551 47.9318V39.0038C62.1551 38.7158 62.1551 38.2998 62.1551 37.7558C62.1551 37.2118 62.1551 36.6678 62.1551 36.1238C62.1551 35.5638 62.1551 35.1238 62.1551 34.8038C62.1551 33.0278 61.8591 31.6358 61.2671 30.6278C60.6751 29.6198 59.5151 29.1158 57.7871 29.1158C56.6671 29.1158 55.7391 29.3398 55.0031 29.7878C54.2831 30.2358 53.7471 30.8758 53.3951 31.7078C53.0431 32.5398 52.8671 33.5318 52.8671 34.6838L50.8511 32.9798C50.8511 30.7558 51.2991 28.8198 52.1951 27.1718C53.0911 25.5078 54.3391 24.2198 55.9391 23.3078C57.5391 22.3958 59.3951 21.9398 61.5071 21.9398C64.6431 21.9398 66.9551 22.8598 68.4431 24.6998C69.9471 26.5238 70.6991 29.0678 70.6991 32.3318C70.6991 33.1638 70.6991 34.1718 70.6991 35.3558C70.6991 36.5398 70.6991 37.9478 70.6991 39.5798V47.9318H62.1551ZM44.3231 47.9318V10.4198H52.8671V47.9318H44.3231ZM84.7042 48.4358C82.8962 48.4358 81.4082 48.1478 80.2402 47.5718C79.0882 46.9958 78.1842 46.2198 77.5282 45.2438C76.8882 44.2518 76.4322 43.1478 76.1602 41.9318C75.9042 40.6998 75.7762 39.4278 75.7762 38.1158C75.7762 37.5398 75.7762 36.9398 75.7762 36.3158C75.7762 35.6758 75.7762 35.0198 75.7762 34.3478V22.4438H84.3202V32.9318C84.3202 33.4758 84.3202 33.9958 84.3202 34.4918C84.3202 34.9718 84.3202 35.4198 84.3202 35.8358C84.3202 36.8118 84.4162 37.7158 84.6082 38.5478C84.8002 39.3798 85.1762 40.0518 85.7362 40.5638C86.3122 41.0598 87.1362 41.3078 88.2082 41.3078C89.2802 41.3078 90.1762 41.0118 90.8962 40.4198C91.6162 39.8118 92.1602 39.0438 92.5282 38.1158C92.9122 37.1718 93.1042 36.1878 93.1042 35.1638L95.0722 37.0838C95.0722 38.7638 94.8322 40.2998 94.3522 41.6918C93.8722 43.0678 93.1842 44.2598 92.2882 45.2678C91.3922 46.2758 90.3042 47.0598 89.0242 47.6198C87.7602 48.1638 86.3202 48.4358 84.7042 48.4358ZM93.1042 47.9318V22.4438H101.648V47.9318H93.1042ZM120.058 48.5078C119.018 48.5078 117.93 48.4198 116.794 48.2438C115.658 48.0838 114.602 47.7478 113.626 47.2358C112.65 46.7238 111.858 45.9558 111.25 44.9318C110.642 43.9078 110.338 42.5478 110.338 40.8518C110.338 40.4838 110.338 40.1238 110.338 39.7718C110.338 39.4038 110.338 39.0358 110.338 38.6678V28.9238H104.554V22.4438H105.442C106.546 22.4438 107.426 22.3958 108.082 22.2998C108.738 22.2038 109.226 21.9638 109.546 21.5798C109.866 21.1958 110.074 20.6038 110.17 19.8038C110.282 18.9878 110.338 17.8598 110.338 16.4198V14.0678H118.93V22.4438H126.13V28.9238H118.93V37.0118C118.93 37.2838 118.93 37.5478 118.93 37.8038C118.93 38.0438 118.93 38.2918 118.93 38.5478C118.93 39.5558 119.05 40.3958 119.29 41.0678C119.53 41.7398 120.154 42.0758 121.162 42.0758C121.722 42.0758 122.25 42.0198 122.746 41.9078C123.242 41.7958 123.61 41.6918 123.85 41.5958V47.8838C123.498 48.0278 122.994 48.1638 122.338 48.2918C121.682 48.4358 120.922 48.5078 120.058 48.5078ZM141.761 48.5078C140.721 48.5078 139.633 48.4198 138.497 48.2438C137.361 48.0838 136.305 47.7478 135.329 47.2358C134.353 46.7238 133.561 45.9558 132.953 44.9318C132.345 43.9078 132.041 42.5478 132.041 40.8518C132.041 40.4838 132.041 40.1238 132.041 39.7718C132.041 39.4038 132.041 39.0358 132.041 38.6678V28.9238H126.257V22.4438H127.145C128.249 22.4438 129.129 22.3958 129.785 22.2998C130.441 22.2038 130.929 21.9638 131.249 21.5798C131.569 21.1958 131.777 20.6038 131.873 19.8038C131.985 18.9878 132.041 17.8598 132.041 16.4198V14.0678H140.633V22.4438H147.833V28.9238H140.633V37.0118C140.633 37.2838 140.633 37.5478 140.633 37.8038C140.633 38.0438 140.633 38.2918 140.633 38.5478C140.633 39.5558 140.753 40.3958 140.993 41.0678C141.233 41.7398 141.857 42.0758 142.865 42.0758C143.425 42.0758 143.953 42.0198 144.449 41.9078C144.945 41.7958 145.313 41.6918 145.553 41.5958V47.8838C145.201 48.0278 144.697 48.1638 144.041 48.2918C143.385 48.4358 142.625 48.5078 141.761 48.5078ZM160.873 10.4198V47.9318H152.449V10.4198H160.873ZM169.652 37.6358V32.2838H185.612L184.892 33.5318C184.892 33.4038 184.892 33.2758 184.892 33.1478C184.892 33.0038 184.892 32.8758 184.892 32.7638C184.892 32.0438 184.708 31.3318 184.34 30.6278C183.972 29.9078 183.388 29.3158 182.588 28.8518C181.788 28.3718 180.74 28.1318 179.444 28.1318C178.164 28.1318 177.076 28.4038 176.18 28.9478C175.3 29.4758 174.628 30.2598 174.164 31.2998C173.716 32.3238 173.492 33.5638 173.492 35.0198C173.492 36.5398 173.708 37.8438 174.14 38.9318C174.588 40.0038 175.268 40.8278 176.18 41.4038C177.092 41.9638 178.26 42.2438 179.684 42.2438C180.564 42.2438 181.316 42.1718 181.94 42.0278C182.58 41.8838 183.092 41.6998 183.476 41.4758C183.876 41.2358 184.172 40.9798 184.364 40.7078C184.572 40.4198 184.7 40.1398 184.748 39.8678H193.196C193.1 40.9718 192.716 42.0438 192.044 43.0838C191.372 44.1078 190.444 45.0358 189.26 45.8678C188.092 46.6838 186.668 47.3318 184.988 47.8118C183.324 48.2918 181.436 48.5318 179.324 48.5318C176.428 48.5318 173.908 47.9718 171.764 46.8518C169.62 45.7158 167.956 44.1478 166.772 42.1478C165.604 40.1478 165.02 37.8438 165.02 35.2358C165.02 32.5798 165.62 30.2598 166.82 28.2758C168.02 26.2758 169.692 24.7238 171.836 23.6198C173.996 22.4998 176.492 21.9398 179.324 21.9398C182.252 21.9398 184.78 22.5078 186.908 23.6438C189.036 24.7638 190.676 26.3478 191.828 28.3958C192.98 30.4438 193.556 32.8518 193.556 35.6198C193.556 36.0518 193.548 36.4438 193.532 36.7958C193.516 37.1478 193.492 37.4278 193.46 37.6358H169.652Z" fill="white"/>
</g>
<defs>
<clipPath id="clip0_6_29">
<rect width="195.159" height="47.9318" fill="white"/>
</clipPath>
</defs>
</svg>
